<?xml version="1.0" encoding="UTF-8"?><svg id="uuid-c2594f91-e36a-461a-8791-1ee5d79dedbc" xmlns="http://www.w3.org/2000/svg" viewBox="0 0 650.088 566.958"><path d="m5.112,541.398v-48.028h8.425v48.028H5.112Z" fill="#393646"/><path d="m89.354,541.398v-40.611h-14.545v-7.417h37.515v7.417h-14.545v40.611h-8.425Z" fill="#393646"/><path d="m185.042,541.398v-40.611h-14.545v-7.417h37.515v7.417h-14.545v40.611h-8.425Z" fill="#393646"/><path d="m269.28,541.398v-48.028h8.425v48.028h-8.425Z" fill="#393646"/><path d="m342.072,541.398v-48.028h21.098c10.081,0,15.697,6.913,15.697,15.05s-5.688,15.049-15.697,15.049h-12.673v17.93h-8.425Zm19.946-40.611h-11.521v15.266h11.521c4.752,0,8.208-3.024,8.208-7.633s-3.456-7.633-8.208-7.633Z" fill="#393646"/><path d="m462.387,492.578c14.4,0,24.554,10.513,24.554,24.842s-10.153,24.843-24.554,24.843-24.555-10.513-24.555-24.843,10.153-24.842,24.555-24.842Zm0,7.488c-9.722,0-15.914,7.417-15.914,17.354,0,9.865,6.192,17.354,15.914,17.354,9.648,0,15.913-7.488,15.913-17.354,0-9.937-6.265-17.354-15.913-17.354Z" fill="#393646"/><path d="m582.699,541.398l-25.059-34.995v34.995h-8.425v-48.028h8.641l24.555,34.06v-34.06h8.425v48.028h-8.137Z" fill="#393646"/><g id="uuid-571c3acc-9981-46fc-9f4d-927657b7a280"><path d="m113.329,46.217c0-21.051,17.198-38.092,37.344-38.092,20.638,0,37.344,17.041,37.344,38.092s-16.707,38.092-37.344,38.092c-20.146,0-37.344-17.041-37.344-38.092Zm-.108,370.835V120.076c3.213,2.996,16.693,14.881,37.449,15.19,21.805.324,36.066-12.357,39.105-15.19v296.976h-76.554Z" fill="#6d5d6e"/><path d="m108.91,43.276c0-21.245,17.704-38.443,38.443-38.443,21.245,0,38.443,17.198,38.443,38.443s-17.198,38.443-38.443,38.443c-20.739,0-38.443-17.198-38.443-38.443Zm1.883,369.037V113.742c3.069,3.012,15.944,14.961,35.769,15.272,20.826.326,34.448-12.423,37.35-15.272v298.572h-73.12Z" fill="#393646"/><polygon points="389.252 415.313 420.254 415.313 420.254 384.311 389.252 415.313" fill="#6d5d6e"/><polygon points="386.252 412.313 417.254 412.313 417.254 381.311 386.252 412.313" fill="#393646"/><path d="m212.316,3c2.24,1.921,17.982,15.898,17.792,39.052-.186,22.661-15.484,36.239-17.792,38.218h120.541v335.043h43.252l45.145-45.145V80.27h119.923V3H212.316Z" fill="#6d5d6e"/><path d="m208.316,0c2.24,1.921,17.982,15.898,17.792,39.052-.186,22.661-15.484,36.239-17.792,38.218h120.541v335.043h43.252l45.145-45.145V77.27h119.923V0H208.316Z" fill="#393646"/></g></svg>